<svg xmlns="http://www.w3.org/2000/svg" viewBox="0 0 200 200">
  <defs>
    <style>
      /* Estado base: sin animación */
      .weapon-group { transform-origin: 100px 200px; }
      .muzzle-flash  { opacity: 0; transform-origin: 100px 30px; }
      .casing        { opacity: 0; }

      /* Animaciones se activan solo cuando el SVG tiene la clase .firing */
      .firing .weapon-group { animation: fire-recoil    0.6s ease-out; }
      .firing .slide        { animation: slide-blowback 0.6s ease-out; }
      .firing .muzzle-flash { animation: flash-burst    0.6s ease-out; }
      .firing .casing       { animation: eject-casing   0.6s ease-out; }

      @keyframes fire-recoil {
        0%, 100% { transform: translateY(0)    rotate(0deg);  }
        10%      { transform: translateY(12px) rotate(-4deg); }
        40%      { transform: translateY(0)    rotate(0deg);  }
      }
      @keyframes slide-blowback {
        0%, 100% { transform: translateY(0);   }
        10%      { transform: translateY(15px); }
        30%      { transform: translateY(0);   }
      }
      @keyframes flash-burst {
        0%, 100% { opacity: 0; transform: scale(0.2); }
        5%       { opacity: 1; transform: scale(1.5); }
        15%      { opacity: 0; transform: scale(0.8); }
      }
      @keyframes eject-casing {
        0%   { opacity: 1; transform: translate(0,0)     rotate(0deg);   }
        20%  { opacity: 1; transform: translate(30px,-20px) rotate(180deg); }
        50%  { opacity: 0; transform: translate(50px,20px)  rotate(360deg); }
        100% { opacity: 0; }
      }
    </style>
  </defs>

  <!-- Sin fondo verde -->
  <g class="weapon-group">
    <g class="muzzle-flash">
      <polygon points="100,5 80,30 100,20 120,30" fill="#ff7700" />
      <polygon points="100,10 90,25 100,22 110,25" fill="#ffff00" />
      <polygon points="100,15 95,22 100,20 105,22" fill="#ffffff" />
    </g>
    <g class="casing">
      <rect x="110" y="80" width="8" height="14" fill="#ffd700" rx="1"/>
      <rect x="110" y="90" width="8" height="4" fill="#ccaa00" />
    </g>
    <rect x="85" y="30" width="30" height="120" fill="#2c3136" rx="2" />
    <circle cx="100" cy="38" r="8" fill="#111" />
    <g class="slide">
      <path d="M 80 40 L 120 40 L 120 100 L 80 100 Z" fill="#4d565e" />
      <path d="M 80 40 L 85 45 L 85 100 L 80 100 Z" fill="#6c7a86" />
      <rect x="110" y="80" width="2" height="15" fill="#2c3136" />
      <rect x="114" y="80" width="2" height="15" fill="#2c3136" />
      <rect x="118" y="80" width="2" height="15" fill="#2c3136" />
      <rect x="96" y="35" width="8" height="5" fill="#111" />
      <rect x="105" y="70" width="15" height="25" fill="#111" />
      <rect x="107" y="72" width="11" height="21" fill="#ffd700" />
    </g>
    <path d="M 50 130 C 50 130, 70 110, 100 110 C 130 110, 150 130, 150 130 L 150 200 L 50 200 Z" fill="#e8b48c" />
    <path d="M 50 150 C 70 140, 80 150, 80 200 L 50 200 Z" fill="#c49068" />
    <path d="M 115 115 C 130 115, 135 130, 135 140 C 135 150, 115 150, 115 150 Z" fill="#e8b48c" />
    <path d="M 118 120 C 128 120, 130 130, 130 138 C 130 145, 118 145, 118 145 Z" fill="#c49068" />
    <path d="M 55 130 C 70 115, 90 120, 90 140 C 90 150, 75 145, 55 130 Z" fill="#f4c6a4" />
    <polygon points="80,110 120,110 120,125 80,125" fill="#000000" opacity="0.3" />
  </g>
</svg>
