<svg xmlns="http://www.w3.org/2000/svg" viewBox="0 0 200 240" width="100%" height="100%">
  <g class="zombie-body">

    <rect x="70" y="160" width="24" height="45" fill="#4a235a" />
    <rect x="70" y="160" width="8" height="45" fill="#351642" /> <rect x="68" y="195" width="28" height="10" fill="#2c1136" /> <rect x="106" y="160" width="24" height="45" fill="#4a235a" />
    <rect x="122" y="160" width="8" height="45" fill="#351642" /> <rect x="104" y="195" width="28" height="10" fill="#2c1136" /> <rect x="68" y="90" width="64" height="70" fill="#694324" />
    <rect x="68" y="140" width="64" height="20" fill="#4e3018" />
    <rect x="120" y="90" width="12" height="70" fill="#543319" />

    <rect x="94" y="90" width="12" height="45" fill="#aa0000" />
    <rect x="96" y="135" width="8" height="10" fill="#880000" />
    <rect x="80" y="115" width="8" height="35" fill="#aa0000" />
    <rect x="112" y="105" width="8" height="30" fill="#aa0000" />

    <g class="arm-left">
      <rect x="48" y="95" width="20" height="20" fill="#543319" />
      <rect x="52" y="115" width="12" height="25" fill="#7a5230" />
      <rect x="52" y="140" width="3" height="10" fill="#694324" />
      <rect x="56.5" y="140" width="3" height="12" fill="#694324" />
      <rect x="61" y="140" width="3" height="9" fill="#694324" />
    </g>

    <g class="arm-right">
      <rect x="132" y="95" width="20" height="20" fill="#4e3018" />
      <rect x="136" y="115" width="12" height="25" fill="#7a5230" />
      <rect x="136" y="140" width="3" height="9" fill="#543319" />
      <rect x="140.5" y="140" width="3" height="12" fill="#543319" />
      <rect x="145" y="140" width="3" height="10" fill="#543319" />
    </g>

    <g class="head-bob">
      <rect x="60" y="30" width="80" height="70" fill="#7a5230" />

      <rect x="120" y="30" width="20" height="70" fill="#694324" /> <rect x="65" y="35" width="15" height="15" fill="#543319" opacity="0.5" /> <rect x="110" y="35" width="25" height="20" fill="#aa0000" opacity="0.8" /> <rect x="72" y="55" width="18" height="12" fill="#990000" />
      <rect x="75" y="57" width="12" height="8" fill="#cc0000" />
      <rect x="78" y="59" width="6" height="4" class="glow-eyes" />

      <rect x="110" y="55" width="18" height="12" fill="#990000" />
      <rect x="113" y="57" width="12" height="8" fill="#cc0000" />
      <rect x="116" y="59" width="6" height="4" class="glow-eyes" />

      <rect x="70" y="75" width="60" height="18" fill="#220505" /> <rect x="72" y="77" width="6" height="6" fill="#dddddd" />
      <rect x="80" y="77" width="6" height="6" fill="#dddddd" />
      <rect x="88" y="77" width="6" height="6" fill="#dddddd" />
      <rect x="96" y="77" width="6" height="6" fill="#dddddd" />
      <rect x="104" y="77" width="6" height="6" fill="#dddddd" />
      <rect x="112" y="77" width="6" height="6" fill="#dddddd" />
      <rect x="120" y="77" width="6" height="6" fill="#dddddd" />

      <rect x="76" y="85" width="6" height="6" fill="#aaaaaa" />
      <rect x="84" y="85" width="6" height="6" fill="#aaaaaa" />
      <rect x="100" y="85" width="6" height="6" fill="#aaaaaa" />
      <rect x="108" y="85" width="6" height="6" fill="#aaaaaa" />

      <rect x="86" y="90" width="6" height="15" fill="#aa0000" />
      <rect x="94" y="85" width="8" height="25" fill="#aa0000" />
      <rect x="104" y="90" width="5" height="12" fill="#aa0000" />

    </g>
  </g>
</svg>
